<svg width="51" height="49" viewBox="0 0 51 49" fill="none" xmlns="http://www.w3.org/2000/svg">
<path d="M34.7415 34.3362C33.6564 35.6995 32.3797 36.8874 30.9082 37.8914C28.4804 39.5504 25.8909 40.3774 23.1427 40.3774C19.8449 40.3774 16.8659 39.2079 14.2089 36.8673C11.5502 34.5284 9.71916 31.75 8.71098 28.5323H26.2207V20.4897H8.71098C9.44278 16.8844 11.1372 13.9824 13.7959 11.7888C16.4514 9.59521 19.5686 8.49925 23.1412 8.49925C25.3648 8.49925 27.4393 9.05558 29.3708 10.1415V1.38719C27.3828 0.774048 25.3083 0.459961 23.1427 0.459961C20.0271 0.459961 17.1172 1.09482 14.4162 2.36119C11.712 3.62923 9.33128 5.35838 7.26938 7.55198C5.2059 9.74557 3.579 12.2817 2.38865 15.1552C1.19673 18.0321 0.601562 21.1279 0.601562 24.4408C0.601562 27.7554 1.19673 30.8512 2.38865 33.7264C3.579 36.6033 5.2059 39.1361 7.26781 41.3297C9.32971 43.5233 11.7104 45.2541 14.4146 46.5205C17.1156 47.7868 20.0255 48.4217 23.1412 48.4217C27.6293 48.4217 31.684 47.1303 35.3053 44.5474C38.8543 42.0147 41.6276 38.6065 43.6361 34.3379H34.7415V34.3362Z" fill="url(#paint0_linear_7134_33584)"/>
<path d="M40.575 3.02344C39.1381 3.02344 37.9744 4.49363 37.9744 6.30798V12.8754H31.4605C29.8713 12.8754 28.582 14.247 28.582 15.9378C28.582 17.6285 29.8713 19.0001 31.4605 19.0001H37.9744V27.1045C37.9744 28.9189 39.1397 30.3891 40.575 30.3891C42.0103 30.3891 43.1755 28.9189 43.1755 27.1045V20.5923C42.761 20.0927 42.4202 19.5247 42.1564 18.9082C42.103 18.7829 42.0543 18.6559 42.0072 18.5256C41.9852 18.4655 41.9632 18.4037 41.9428 18.3435C41.9004 18.2132 41.8627 18.0796 41.8266 17.9459C41.8093 17.8824 41.792 17.8189 41.7763 17.7554C41.7433 17.6151 41.7167 17.4731 41.6931 17.3294C41.6821 17.2693 41.6695 17.2108 41.6601 17.1507C41.6303 16.9468 41.6083 16.7413 41.5957 16.5325C41.5785 16.2335 41.5863 15.9411 41.6052 15.6504C41.6099 15.5819 41.6161 15.5134 41.6224 15.4449C41.6476 15.1776 41.6837 14.9136 41.7386 14.6547C41.7418 14.638 41.7449 14.6196 41.7481 14.6029C41.814 14.3038 41.8972 14.0115 41.9993 13.7275C42.0025 13.7191 42.0072 13.7091 42.0103 13.7007C42.1124 13.42 42.2317 13.1461 42.3652 12.8838C42.5929 12.4394 42.8615 12.0217 43.174 11.6441V6.30798C43.1755 4.49363 42.0119 3.02344 40.575 3.02344Z" fill="#FFCE00"/>
<path d="M47.4725 12.8936C45.8472 12.9989 44.6097 14.4874 44.7087 16.2166C44.8092 17.9457 46.2068 19.2622 47.8321 19.157C49.4575 19.0517 50.6949 17.5631 50.596 15.834C50.4971 14.1032 49.0979 12.7883 47.4725 12.8936Z" fill="#FFCE00"/>
<path d="M34.7403 34.333C34.7403 34.333 27.0502 53.073 12.6797 45.585C12.6797 45.585 31.5776 56.9991 43.6365 34.333H34.7403Z" fill="url(#paint1_linear_7134_33584)"/>
<path d="M29.3746 10.1481C29.3746 10.1481 14.6523 -1.36957 3.13672 13.7083C3.13672 13.7083 10.6321 -3.493 29.3746 1.39038C29.3746 1.39038 29.3039 10.0729 29.3746 10.1481Z" fill="url(#paint2_linear_7134_33584)"/>
<path d="M26.2395 20.4563C26.2395 20.4563 19.6031 28.5324 8.71094 28.5324H26.2206C26.2206 28.534 26.0919 20.2993 26.2395 20.4563Z" fill="url(#paint3_linear_7134_33584)"/>
<path d="M43.2298 5.84566C43.2298 5.84566 38.0586 4.87333 38.0586 12.926V6.0545C38.0586 6.0545 38.1874 3.07234 40.6591 3.07234C40.6591 3.07234 42.6896 3.01721 43.2298 5.84566Z" fill="url(#paint4_linear_7134_33584)"/>
<path d="M38.0156 27.6477C38.0156 27.6477 43.1869 28.62 43.1869 20.5674V27.4372C43.1869 27.4372 43.0581 30.4194 40.5863 30.4194C40.5863 30.421 38.5574 30.4762 38.0156 27.6477Z" fill="url(#paint5_linear_7134_33584)"/>
<path d="M31.2511 12.8857C31.2511 12.8857 30.4141 19.0639 39.2066 19.0706H31.8415C31.8415 19.0706 28.7243 19.1859 28.594 15.9047C28.594 15.9047 28.5123 13.2867 31.2511 12.8857Z" fill="url(#paint6_linear_7134_33584)"/>
<defs>
<linearGradient id="paint0_linear_7134_33584" x1="54.2368" y1="24.4406" x2="5.73046" y2="24.4406" gradientUnits="userSpaceOnUse">
<stop stop-color="#57F7E8"/>
<stop offset="0.4625" stop-color="#55F7E7"/>
<stop offset="0.6291" stop-color="#4EF7E1"/>
<stop offset="0.7478" stop-color="#43F7D8"/>
<stop offset="0.8438" stop-color="#32F8CC"/>
<stop offset="0.9251" stop-color="#1CF8BB"/>
<stop offset="0.9967" stop-color="#01F9A7"/>
<stop offset="1" stop-color="#00F9A6"/>
</linearGradient>
<linearGradient id="paint1_linear_7134_33584" x1="12.6802" y1="41.397" x2="43.6364" y2="41.397" gradientUnits="userSpaceOnUse">
<stop stop-color="#3FB8B0" stop-opacity="0.4"/>
<stop offset="0.4904" stop-color="#3DBAB0" stop-opacity="0.6942"/>
<stop offset="0.667" stop-color="#37C1AF" stop-opacity="0.8002"/>
<stop offset="0.793" stop-color="#2BCCAD" stop-opacity="0.8758"/>
<stop offset="0.8947" stop-color="#1BDDAA" stop-opacity="0.9368"/>
<stop offset="0.9809" stop-color="#06F3A7" stop-opacity="0.9885"/>
<stop offset="1" stop-color="#00F9A6"/>
</linearGradient>
<linearGradient id="paint2_linear_7134_33584" x1="3.13625" y1="7.11243" x2="29.3741" y2="7.11243" gradientUnits="userSpaceOnUse">
<stop stop-color="#3FB8B0" stop-opacity="0.4"/>
<stop offset="0.4904" stop-color="#3DBAB0" stop-opacity="0.6942"/>
<stop offset="0.667" stop-color="#37C1AF" stop-opacity="0.8002"/>
<stop offset="0.793" stop-color="#2BCCAD" stop-opacity="0.8758"/>
<stop offset="0.8947" stop-color="#1BDDAA" stop-opacity="0.9368"/>
<stop offset="0.9809" stop-color="#06F3A7" stop-opacity="0.9885"/>
<stop offset="1" stop-color="#00F9A6"/>
</linearGradient>
<linearGradient id="paint3_linear_7134_33584" x1="8.71091" y1="24.4941" x2="26.2396" y2="24.4941" gradientUnits="userSpaceOnUse">
<stop stop-color="#3FB8B0" stop-opacity="0.4"/>
<stop offset="0.4904" stop-color="#3DBAB0" stop-opacity="0.6942"/>
<stop offset="0.667" stop-color="#37C1AF" stop-opacity="0.8002"/>
<stop offset="0.793" stop-color="#2BCCAD" stop-opacity="0.8758"/>
<stop offset="0.8947" stop-color="#1BDDAA" stop-opacity="0.9368"/>
<stop offset="0.9809" stop-color="#06F3A7" stop-opacity="0.9885"/>
<stop offset="1" stop-color="#00F9A6"/>
</linearGradient>
<linearGradient id="paint4_linear_7134_33584" x1="26.2664" y1="5.36884" x2="56.778" y2="10.7532" gradientUnits="userSpaceOnUse">
<stop stop-color="#E9B84C"/>
<stop offset="0.3326" stop-color="#DBA340" stop-opacity="0.6674"/>
<stop offset="0.7254" stop-color="#CF9036" stop-opacity="0.2746"/>
<stop offset="1" stop-color="#CB8932" stop-opacity="0"/>
</linearGradient>
<linearGradient id="paint5_linear_7134_33584" x1="23.3666" y1="21.8101" x2="53.8781" y2="27.1944" gradientUnits="userSpaceOnUse">
<stop stop-color="#E9B84C"/>
<stop offset="0.3326" stop-color="#DBA340" stop-opacity="0.6674"/>
<stop offset="0.7254" stop-color="#CF9036" stop-opacity="0.2746"/>
<stop offset="1" stop-color="#CB8932" stop-opacity="0"/>
</linearGradient>
<linearGradient id="paint6_linear_7134_33584" x1="24.6335" y1="14.6329" x2="55.1451" y2="20.0173" gradientUnits="userSpaceOnUse">
<stop stop-color="#E9B84C"/>
<stop offset="0.3326" stop-color="#DBA340" stop-opacity="0.6674"/>
<stop offset="0.7254" stop-color="#CF9036" stop-opacity="0.2746"/>
<stop offset="1" stop-color="#CB8932" stop-opacity="0"/>
</linearGradient>
</defs>
</svg>
